<?xml version="1.0" encoding="utf-8" standalone="no"?>
<!DOCTYPE svg PUBLIC "-//W3C//DTD SVG 1.1//EN"
  "http://www.w3.org/Graphics/SVG/1.1/DTD/svg11.dtd">
<svg xmlns:xlink="http://www.w3.org/1999/xlink" width="647.449781pt" height="252.725625pt" viewBox="0 0 647.449781 252.725625" xmlns="http://www.w3.org/2000/svg" version="1.1">
 <metadata>
  <rdf:RDF xmlns:dc="http://purl.org/dc/elements/1.1/" xmlns:cc="http://creativecommons.org/ns#" xmlns:rdf="http://www.w3.org/1999/02/22-rdf-syntax-ns#">
   <cc:Work>
    <dc:type rdf:resource="http://purl.org/dc/dcmitype/StillImage"/>
    <dc:date>2026-05-01T08:02:38.576666</dc:date>
    <dc:format>image/svg+xml</dc:format>
    <dc:creator>
     <cc:Agent>
      <dc:title>Matplotlib v3.9.0, https://matplotlib.org/</dc:title>
     </cc:Agent>
    </dc:creator>
   </cc:Work>
  </rdf:RDF>
 </metadata>
 <defs>
  <style type="text/css">*{stroke-linejoin: round; stroke-linecap: butt}</style>
 </defs>
 <g id="figure_1">
  <g id="patch_1">
   <path d="M -0 252.725625 
L 647.449781 252.725625 
L 647.449781 0 
L -0 0 
z
" style="fill: #ffffff"/>
  </g>
  <g id="axes_1">
   <g id="patch_2">
    <path d="M 45.279063 210.798125 
L 324.433348 210.798125 
L 324.433348 24.318125 
L 45.279063 24.318125 
z
" style="fill: #ffffff"/>
   </g>
   <g id="patch_3">
    <path d="M 45.279063 210.798125 
L 52.25792 210.798125 
L 52.25792 196.812125 
L 45.279063 196.812125 
z
" clip-path="url(#p8ac2e85d37)" style="fill: #e79b2d; stroke: #000000; stroke-width: 0.9; stroke-linejoin: miter"/>
   </g>
   <g id="patch_4">
    <path d="M 52.25792 210.798125 
L 59.236777 210.798125 
L 59.236777 192.150125 
L 52.25792 192.150125 
z
" clip-path="url(#p8ac2e85d37)" style="fill: #e79b2d; stroke: #000000; stroke-width: 0.9; stroke-linejoin: miter"/>
   </g>
   <g id="patch_5">
    <path d="M 59.236777 210.798125 
L 66.215634 210.798125 
L 66.215634 192.150125 
L 59.236777 192.150125 
z
" clip-path="url(#p8ac2e85d37)" style="fill: #e79b2d; stroke: #000000; stroke-width: 0.9; stroke-linejoin: miter"/>
   </g>
   <g id="patch_6">
    <path d="M 66.215634 210.798125 
L 73.194491 210.798125 
L 73.194491 187.488125 
L 66.215634 187.488125 
z
" clip-path="url(#p8ac2e85d37)" style="fill: #e79b2d; stroke: #000000; stroke-width: 0.9; stroke-linejoin: miter"/>
   </g>
   <g id="patch_7">
    <path d="M 73.194491 210.798125 
L 80.173348 210.798125 
L 80.173348 192.150125 
L 73.194491 192.150125 
z
" clip-path="url(#p8ac2e85d37)" style="fill: #e79b2d; stroke: #000000; stroke-width: 0.9; stroke-linejoin: miter"/>
   </g>
   <g id="patch_8">
    <path d="M 80.173348 210.798125 
L 87.152205 210.798125 
L 87.152205 187.488125 
L 80.173348 187.488125 
z
" clip-path="url(#p8ac2e85d37)" style="fill: #e79b2d; stroke: #000000; stroke-width: 0.9; stroke-linejoin: miter"/>
   </g>
   <g id="patch_9">
    <path d="M 87.152205 210.798125 
L 94.131063 210.798125 
L 94.131063 201.474125 
L 87.152205 201.474125 
z
" clip-path="url(#p8ac2e85d37)" style="fill: #e79b2d; stroke: #000000; stroke-width: 0.9; stroke-linejoin: miter"/>
   </g>
   <g id="patch_10">
    <path d="M 94.131063 210.798125 
L 101.10992 210.798125 
L 101.10992 196.812125 
L 94.131063 196.812125 
z
" clip-path="url(#p8ac2e85d37)" style="fill: #e79b2d; stroke: #000000; stroke-width: 0.9; stroke-linejoin: miter"/>
   </g>
   <g id="patch_11">
    <path d="M 101.10992 210.798125 
L 108.088777 210.798125 
L 108.088777 206.136125 
L 101.10992 206.136125 
z
" clip-path="url(#p8ac2e85d37)" style="fill: #e79b2d; stroke: #000000; stroke-width: 0.9; stroke-linejoin: miter"/>
   </g>
   <g id="patch_12">
    <path d="M 108.088777 210.798125 
L 115.067634 210.798125 
L 115.067634 206.136125 
L 108.088777 206.136125 
z
" clip-path="url(#p8ac2e85d37)" style="fill: #e79b2d; stroke: #000000; stroke-width: 0.9; stroke-linejoin: miter"/>
   </g>
   <g id="patch_13">
    <path d="M 115.067634 210.798125 
L 122.046491 210.798125 
L 122.046491 201.474125 
L 115.067634 201.474125 
z
" clip-path="url(#p8ac2e85d37)" style="fill: #e79b2d; stroke: #000000; stroke-width: 0.9; stroke-linejoin: miter"/>
   </g>
   <g id="patch_14">
    <path d="M 122.046491 210.798125 
L 129.025348 210.798125 
L 129.025348 187.488125 
L 122.046491 187.488125 
z
" clip-path="url(#p8ac2e85d37)" style="fill: #e79b2d; stroke: #000000; stroke-width: 0.9; stroke-linejoin: miter"/>
   </g>
   <g id="patch_15">
    <path d="M 129.025348 210.798125 
L 136.004205 210.798125 
L 136.004205 182.826125 
L 129.025348 182.826125 
z
" clip-path="url(#p8ac2e85d37)" style="fill: #e79b2d; stroke: #000000; stroke-width: 0.9; stroke-linejoin: miter"/>
   </g>
   <g id="patch_16">
    <path d="M 136.004205 210.798125 
L 142.983063 210.798125 
L 142.983063 178.164125 
L 136.004205 178.164125 
z
" clip-path="url(#p8ac2e85d37)" style="fill: #e79b2d; stroke: #000000; stroke-width: 0.9; stroke-linejoin: miter"/>
   </g>
   <g id="patch_17">
    <path d="M 142.983063 210.798125 
L 149.96192 210.798125 
L 149.96192 168.840125 
L 142.983063 168.840125 
z
" clip-path="url(#p8ac2e85d37)" style="fill: #e79b2d; stroke: #000000; stroke-width: 0.9; stroke-linejoin: miter"/>
   </g>
   <g id="patch_18">
    <path d="M 149.96192 210.798125 
L 156.940777 210.798125 
L 156.940777 150.192125 
L 149.96192 150.192125 
z
" clip-path="url(#p8ac2e85d37)" style="fill: #e79b2d; stroke: #000000; stroke-width: 0.9; stroke-linejoin: miter"/>
   </g>
   <g id="patch_19">
    <path d="M 156.940777 210.798125 
L 163.919634 210.798125 
L 163.919634 117.558125 
L 156.940777 117.558125 
z
" clip-path="url(#p8ac2e85d37)" style="fill: #e79b2d; stroke: #000000; stroke-width: 0.9; stroke-linejoin: miter"/>
   </g>
   <g id="patch_20">
    <path d="M 163.919634 210.798125 
L 170.898491 210.798125 
L 170.898491 117.558125 
L 163.919634 117.558125 
z
" clip-path="url(#p8ac2e85d37)" style="fill: #e79b2d; stroke: #000000; stroke-width: 0.9; stroke-linejoin: miter"/>
   </g>
   <g id="patch_21">
    <path d="M 170.898491 210.798125 
L 177.877348 210.798125 
L 177.877348 84.924125 
L 170.898491 84.924125 
z
" clip-path="url(#p8ac2e85d37)" style="fill: #e79b2d; stroke: #000000; stroke-width: 0.9; stroke-linejoin: miter"/>
   </g>
   <g id="patch_22">
    <path d="M 177.877348 210.798125 
L 184.856205 210.798125 
L 184.856205 117.558125 
L 177.877348 117.558125 
z
" clip-path="url(#p8ac2e85d37)" style="fill: #e79b2d; stroke: #000000; stroke-width: 0.9; stroke-linejoin: miter"/>
   </g>
   <g id="patch_23">
    <path d="M 184.856205 210.798125 
L 191.835062 210.798125 
L 191.835062 33.642125 
L 184.856205 33.642125 
z
" clip-path="url(#p8ac2e85d37)" style="fill: #e79b2d; stroke: #000000; stroke-width: 0.9; stroke-linejoin: miter"/>
   </g>
   <g id="patch_24">
    <path d="M 191.835063 210.798125 
L 198.81392 210.798125 
L 198.81392 112.896125 
L 191.835063 112.896125 
z
" clip-path="url(#p8ac2e85d37)" style="fill: #e79b2d; stroke: #000000; stroke-width: 0.9; stroke-linejoin: miter"/>
   </g>
   <g id="patch_25">
    <path d="M 198.81392 210.798125 
L 205.792777 210.798125 
L 205.792777 42.966125 
L 198.81392 42.966125 
z
" clip-path="url(#p8ac2e85d37)" style="fill: #e79b2d; stroke: #000000; stroke-width: 0.9; stroke-linejoin: miter"/>
   </g>
   <g id="patch_26">
    <path d="M 205.792777 210.798125 
L 212.771634 210.798125 
L 212.771634 117.558125 
L 205.792777 117.558125 
z
" clip-path="url(#p8ac2e85d37)" style="fill: #e79b2d; stroke: #000000; stroke-width: 0.9; stroke-linejoin: miter"/>
   </g>
   <g id="patch_27">
    <path d="M 212.771634 210.798125 
L 219.750491 210.798125 
L 219.750491 98.910125 
L 212.771634 98.910125 
z
" clip-path="url(#p8ac2e85d37)" style="fill: #e79b2d; stroke: #000000; stroke-width: 0.9; stroke-linejoin: miter"/>
   </g>
   <g id="patch_28">
    <path d="M 219.750491 210.798125 
L 226.729348 210.798125 
L 226.729348 103.572125 
L 219.750491 103.572125 
z
" clip-path="url(#p8ac2e85d37)" style="fill: #e79b2d; stroke: #000000; stroke-width: 0.9; stroke-linejoin: miter"/>
   </g>
   <g id="patch_29">
    <path d="M 226.729348 210.798125 
L 233.708205 210.798125 
L 233.708205 112.896125 
L 226.729348 112.896125 
z
" clip-path="url(#p8ac2e85d37)" style="fill: #e79b2d; stroke: #000000; stroke-width: 0.9; stroke-linejoin: miter"/>
   </g>
   <g id="patch_30">
    <path d="M 233.708205 210.798125 
L 240.687063 210.798125 
L 240.687063 126.882125 
L 233.708205 126.882125 
z
" clip-path="url(#p8ac2e85d37)" style="fill: #e79b2d; stroke: #000000; stroke-width: 0.9; stroke-linejoin: miter"/>
   </g>
   <g id="patch_31">
    <path d="M 240.687063 210.798125 
L 247.66592 210.798125 
L 247.66592 136.206125 
L 240.687063 136.206125 
z
" clip-path="url(#p8ac2e85d37)" style="fill: #e79b2d; stroke: #000000; stroke-width: 0.9; stroke-linejoin: miter"/>
   </g>
   <g id="patch_32">
    <path d="M 247.66592 210.798125 
L 254.644777 210.798125 
L 254.644777 140.868125 
L 247.66592 140.868125 
z
" clip-path="url(#p8ac2e85d37)" style="fill: #e79b2d; stroke: #000000; stroke-width: 0.9; stroke-linejoin: miter"/>
   </g>
   <g id="patch_33">
    <path d="M 254.644777 210.798125 
L 261.623634 210.798125 
L 261.623634 164.178125 
L 254.644777 164.178125 
z
" clip-path="url(#p8ac2e85d37)" style="fill: #e79b2d; stroke: #000000; stroke-width: 0.9; stroke-linejoin: miter"/>
   </g>
   <g id="patch_34">
    <path d="M 261.623634 210.798125 
L 268.602491 210.798125 
L 268.602491 168.840125 
L 261.623634 168.840125 
z
" clip-path="url(#p8ac2e85d37)" style="fill: #e79b2d; stroke: #000000; stroke-width: 0.9; stroke-linejoin: miter"/>
   </g>
   <g id="patch_35">
    <path d="M 268.602491 210.798125 
L 275.581348 210.798125 
L 275.581348 178.164125 
L 268.602491 178.164125 
z
" clip-path="url(#p8ac2e85d37)" style="fill: #e79b2d; stroke: #000000; stroke-width: 0.9; stroke-linejoin: miter"/>
   </g>
   <g id="patch_36">
    <path d="M 275.581348 210.798125 
L 282.560205 210.798125 
L 282.560205 182.826125 
L 275.581348 182.826125 
z
" clip-path="url(#p8ac2e85d37)" style="fill: #e79b2d; stroke: #000000; stroke-width: 0.9; stroke-linejoin: miter"/>
   </g>
   <g id="patch_37">
    <path d="M 282.560205 210.798125 
L 289.539062 210.798125 
L 289.539062 196.812125 
L 282.560205 196.812125 
z
" clip-path="url(#p8ac2e85d37)" style="fill: #e79b2d; stroke: #000000; stroke-width: 0.9; stroke-linejoin: miter"/>
   </g>
   <g id="patch_38">
    <path d="M 289.539062 210.798125 
L 296.51792 210.798125 
L 296.51792 201.474125 
L 289.539062 201.474125 
z
" clip-path="url(#p8ac2e85d37)" style="fill: #e79b2d; stroke: #000000; stroke-width: 0.9; stroke-linejoin: miter"/>
   </g>
   <g id="patch_39">
    <path d="M 296.51792 210.798125 
L 303.496777 210.798125 
L 303.496777 196.812125 
L 296.51792 196.812125 
z
" clip-path="url(#p8ac2e85d37)" style="fill: #e79b2d; stroke: #000000; stroke-width: 0.9; stroke-linejoin: miter"/>
   </g>
   <g id="patch_40">
    <path d="M 303.496777 210.798125 
L 310.475634 210.798125 
L 310.475634 206.136125 
L 303.496777 206.136125 
z
" clip-path="url(#p8ac2e85d37)" style="fill: #e79b2d; stroke: #000000; stroke-width: 0.9; stroke-linejoin: miter"/>
   </g>
   <g id="patch_41">
    <path d="M 310.475634 210.798125 
L 317.454491 210.798125 
L 317.454491 206.136125 
L 310.475634 206.136125 
z
" clip-path="url(#p8ac2e85d37)" style="fill: #e79b2d; stroke: #000000; stroke-width: 0.9; stroke-linejoin: miter"/>
   </g>
   <g id="patch_42">
    <path d="M 317.454491 210.798125 
L 324.433348 210.798125 
L 324.433348 206.136125 
L 317.454491 206.136125 
z
" clip-path="url(#p8ac2e85d37)" style="fill: #e79b2d; stroke: #000000; stroke-width: 0.9; stroke-linejoin: miter"/>
   </g>
   <g id="matplotlib.axis_1">
    <g id="xtick_1">
     <g id="line2d_1">
      <defs>
       <path id="mf5fc13f164" d="M 0 0 
L 0 4 
" style="stroke: #000000; stroke-width: 1.1"/>
      </defs>
      <g>
       <use xlink:href="#mf5fc13f164" x="45.279063" y="210.798125" style="stroke: #000000; stroke-width: 1.1"/>
      </g>
     </g>
     <g id="text_1">
      <!-- 0.0 -->
      <g transform="translate(36.532344 226.656406) scale(0.11 -0.11)">
       <defs>
        <path id="DejaVuSans-30" d="M 2034 4250 
Q 1547 4250 1301 3770 
Q 1056 3291 1056 2328 
Q 1056 1369 1301 889 
Q 1547 409 2034 409 
Q 2525 409 2770 889 
Q 3016 1369 3016 2328 
Q 3016 3291 2770 3770 
Q 2525 4250 2034 4250 
z
M 2034 4750 
Q 2819 4750 3233 4129 
Q 3647 3509 3647 2328 
Q 3647 1150 3233 529 
Q 2819 -91 2034 -91 
Q 1250 -91 836 529 
Q 422 1150 422 2328 
Q 422 3509 836 4129 
Q 1250 4750 2034 4750 
z
" transform="scale(0.015625)"/>
        <path id="DejaVuSans-2e" d="M 684 794 
L 1344 794 
L 1344 0 
L 684 0 
L 684 794 
z
" transform="scale(0.015625)"/>
       </defs>
       <use xlink:href="#DejaVuSans-30"/>
       <use xlink:href="#DejaVuSans-2e" x="63.623047"/>
       <use xlink:href="#DejaVuSans-30" x="95.410156"/>
      </g>
     </g>
    </g>
    <g id="xtick_2">
     <g id="line2d_2">
      <g>
       <use xlink:href="#mf5fc13f164" x="101.10992" y="210.798125" style="stroke: #000000; stroke-width: 1.1"/>
      </g>
     </g>
     <g id="text_2">
      <!-- 0.2 -->
      <g transform="translate(92.363201 226.656406) scale(0.11 -0.11)">
       <defs>
        <path id="DejaVuSans-32" d="M 1228 531 
L 3431 531 
L 3431 0 
L 469 0 
L 469 531 
Q 828 903 1448 1529 
Q 2069 2156 2228 2338 
Q 2531 2678 2651 2914 
Q 2772 3150 2772 3378 
Q 2772 3750 2511 3984 
Q 2250 4219 1831 4219 
Q 1534 4219 1204 4116 
Q 875 4013 500 3803 
L 500 4441 
Q 881 4594 1212 4672 
Q 1544 4750 1819 4750 
Q 2544 4750 2975 4387 
Q 3406 4025 3406 3419 
Q 3406 3131 3298 2873 
Q 3191 2616 2906 2266 
Q 2828 2175 2409 1742 
Q 1991 1309 1228 531 
z
" transform="scale(0.015625)"/>
       </defs>
       <use xlink:href="#DejaVuSans-30"/>
       <use xlink:href="#DejaVuSans-2e" x="63.623047"/>
       <use xlink:href="#DejaVuSans-32" x="95.410156"/>
      </g>
     </g>
    </g>
    <g id="xtick_3">
     <g id="line2d_3">
      <g>
       <use xlink:href="#mf5fc13f164" x="156.940777" y="210.798125" style="stroke: #000000; stroke-width: 1.1"/>
      </g>
     </g>
     <g id="text_3">
      <!-- 0.4 -->
      <g transform="translate(148.194058 226.656406) scale(0.11 -0.11)">
       <defs>
        <path id="DejaVuSans-34" d="M 2419 4116 
L 825 1625 
L 2419 1625 
L 2419 4116 
z
M 2253 4666 
L 3047 4666 
L 3047 1625 
L 3713 1625 
L 3713 1100 
L 3047 1100 
L 3047 0 
L 2419 0 
L 2419 1100 
L 313 1100 
L 313 1709 
L 2253 4666 
z
" transform="scale(0.015625)"/>
       </defs>
       <use xlink:href="#DejaVuSans-30"/>
       <use xlink:href="#DejaVuSans-2e" x="63.623047"/>
       <use xlink:href="#DejaVuSans-34" x="95.410156"/>
      </g>
     </g>
    </g>
    <g id="xtick_4">
     <g id="line2d_4">
      <g>
       <use xlink:href="#mf5fc13f164" x="212.771634" y="210.798125" style="stroke: #000000; stroke-width: 1.1"/>
      </g>
     </g>
     <g id="text_4">
      <!-- 0.6 -->
      <g transform="translate(204.024915 226.656406) scale(0.11 -0.11)">
       <defs>
        <path id="DejaVuSans-36" d="M 2113 2584 
Q 1688 2584 1439 2293 
Q 1191 2003 1191 1497 
Q 1191 994 1439 701 
Q 1688 409 2113 409 
Q 2538 409 2786 701 
Q 3034 994 3034 1497 
Q 3034 2003 2786 2293 
Q 2538 2584 2113 2584 
z
M 3366 4563 
L 3366 3988 
Q 3128 4100 2886 4159 
Q 2644 4219 2406 4219 
Q 1781 4219 1451 3797 
Q 1122 3375 1075 2522 
Q 1259 2794 1537 2939 
Q 1816 3084 2150 3084 
Q 2853 3084 3261 2657 
Q 3669 2231 3669 1497 
Q 3669 778 3244 343 
Q 2819 -91 2113 -91 
Q 1303 -91 875 529 
Q 447 1150 447 2328 
Q 447 3434 972 4092 
Q 1497 4750 2381 4750 
Q 2619 4750 2861 4703 
Q 3103 4656 3366 4563 
z
" transform="scale(0.015625)"/>
       </defs>
       <use xlink:href="#DejaVuSans-30"/>
       <use xlink:href="#DejaVuSans-2e" x="63.623047"/>
       <use xlink:href="#DejaVuSans-36" x="95.410156"/>
      </g>
     </g>
    </g>
    <g id="xtick_5">
     <g id="line2d_5">
      <g>
       <use xlink:href="#mf5fc13f164" x="268.602491" y="210.798125" style="stroke: #000000; stroke-width: 1.1"/>
      </g>
     </g>
     <g id="text_5">
      <!-- 0.8 -->
      <g transform="translate(259.855772 226.656406) scale(0.11 -0.11)">
       <defs>
        <path id="DejaVuSans-38" d="M 2034 2216 
Q 1584 2216 1326 1975 
Q 1069 1734 1069 1313 
Q 1069 891 1326 650 
Q 1584 409 2034 409 
Q 2484 409 2743 651 
Q 3003 894 3003 1313 
Q 3003 1734 2745 1975 
Q 2488 2216 2034 2216 
z
M 1403 2484 
Q 997 2584 770 2862 
Q 544 3141 544 3541 
Q 544 4100 942 4425 
Q 1341 4750 2034 4750 
Q 2731 4750 3128 4425 
Q 3525 4100 3525 3541 
Q 3525 3141 3298 2862 
Q 3072 2584 2669 2484 
Q 3125 2378 3379 2068 
Q 3634 1759 3634 1313 
Q 3634 634 3220 271 
Q 2806 -91 2034 -91 
Q 1263 -91 848 271 
Q 434 634 434 1313 
Q 434 1759 690 2068 
Q 947 2378 1403 2484 
z
M 1172 3481 
Q 1172 3119 1398 2916 
Q 1625 2713 2034 2713 
Q 2441 2713 2670 2916 
Q 2900 3119 2900 3481 
Q 2900 3844 2670 4047 
Q 2441 4250 2034 4250 
Q 1625 4250 1398 4047 
Q 1172 3844 1172 3481 
z
" transform="scale(0.015625)"/>
       </defs>
       <use xlink:href="#DejaVuSans-30"/>
       <use xlink:href="#DejaVuSans-2e" x="63.623047"/>
       <use xlink:href="#DejaVuSans-38" x="95.410156"/>
      </g>
     </g>
    </g>
    <g id="xtick_6">
     <g id="line2d_6">
      <g>
       <use xlink:href="#mf5fc13f164" x="324.433348" y="210.798125" style="stroke: #000000; stroke-width: 1.1"/>
      </g>
     </g>
     <g id="text_6">
      <!-- 1.0 -->
      <g transform="translate(315.686629 226.656406) scale(0.11 -0.11)">
       <defs>
        <path id="DejaVuSans-31" d="M 794 531 
L 1825 531 
L 1825 4091 
L 703 3866 
L 703 4441 
L 1819 4666 
L 2450 4666 
L 2450 531 
L 3481 531 
L 3481 0 
L 794 0 
L 794 531 
z
" transform="scale(0.015625)"/>
       </defs>
       <use xlink:href="#DejaVuSans-31"/>
       <use xlink:href="#DejaVuSans-2e" x="63.623047"/>
       <use xlink:href="#DejaVuSans-30" x="95.410156"/>
      </g>
     </g>
    </g>
    <g id="text_7">
     <!-- $\alpha$ -->
     <g transform="translate(180.566205 242.822031) scale(0.13 -0.13)">
      <defs>
       <path id="DejaVuSans-Oblique-3b1" d="M 2619 1628 
L 2622 2350 
Q 2625 3088 2069 3091 
Q 1653 3094 1394 2747 
Q 1069 2319 959 1747 
Q 825 1059 994 731 
Q 1169 397 1547 397 
Q 1966 397 2319 1063 
L 2619 1628 
z
M 2166 3578 
Q 3141 3594 3128 2584 
Q 3128 2584 3616 3500 
L 4128 3500 
L 3119 1603 
L 3109 919 
Q 3109 766 3194 638 
Q 3291 488 3391 488 
L 3669 488 
L 3575 0 
L 3228 0 
Q 2934 0 2722 263 
Q 2622 394 2619 669 
Q 2416 334 2066 50 
Q 1900 -81 1453 -78 
Q 722 -72 456 397 
Q 184 884 353 1747 
Q 534 2675 1009 3097 
Q 1544 3569 2166 3578 
z
" transform="scale(0.015625)"/>
      </defs>
      <use xlink:href="#DejaVuSans-Oblique-3b1" transform="translate(0 0.84375)"/>
     </g>
    </g>
   </g>
   <g id="matplotlib.axis_2">
    <g id="ytick_1">
     <g id="line2d_7">
      <defs>
       <path id="m68f25a9870" d="M 0 0 
L -4 0 
" style="stroke: #000000; stroke-width: 1.1"/>
      </defs>
      <g>
       <use xlink:href="#m68f25a9870" x="45.279063" y="210.798125" style="stroke: #000000; stroke-width: 1.1"/>
      </g>
     </g>
     <g id="text_8">
      <!-- 0 -->
      <g transform="translate(30.780313 214.977266) scale(0.11 -0.11)">
       <use xlink:href="#DejaVuSans-30"/>
      </g>
     </g>
    </g>
    <g id="ytick_2">
     <g id="line2d_8">
      <g>
       <use xlink:href="#m68f25a9870" x="45.279063" y="187.488125" style="stroke: #000000; stroke-width: 1.1"/>
      </g>
     </g>
     <g id="text_9">
      <!-- 5 -->
      <g transform="translate(30.780313 191.667266) scale(0.11 -0.11)">
       <defs>
        <path id="DejaVuSans-35" d="M 691 4666 
L 3169 4666 
L 3169 4134 
L 1269 4134 
L 1269 2991 
Q 1406 3038 1543 3061 
Q 1681 3084 1819 3084 
Q 2600 3084 3056 2656 
Q 3513 2228 3513 1497 
Q 3513 744 3044 326 
Q 2575 -91 1722 -91 
Q 1428 -91 1123 -41 
Q 819 9 494 109 
L 494 744 
Q 775 591 1075 516 
Q 1375 441 1709 441 
Q 2250 441 2565 725 
Q 2881 1009 2881 1497 
Q 2881 1984 2565 2268 
Q 2250 2553 1709 2553 
Q 1456 2553 1204 2497 
Q 953 2441 691 2322 
L 691 4666 
z
" transform="scale(0.015625)"/>
       </defs>
       <use xlink:href="#DejaVuSans-35"/>
      </g>
     </g>
    </g>
    <g id="ytick_3">
     <g id="line2d_9">
      <g>
       <use xlink:href="#m68f25a9870" x="45.279063" y="164.178125" style="stroke: #000000; stroke-width: 1.1"/>
      </g>
     </g>
     <g id="text_10">
      <!-- 10 -->
      <g transform="translate(23.781563 168.357266) scale(0.11 -0.11)">
       <use xlink:href="#DejaVuSans-31"/>
       <use xlink:href="#DejaVuSans-30" x="63.623047"/>
      </g>
     </g>
    </g>
    <g id="ytick_4">
     <g id="line2d_10">
      <g>
       <use xlink:href="#m68f25a9870" x="45.279063" y="140.868125" style="stroke: #000000; stroke-width: 1.1"/>
      </g>
     </g>
     <g id="text_11">
      <!-- 15 -->
      <g transform="translate(23.781563 145.047266) scale(0.11 -0.11)">
       <use xlink:href="#DejaVuSans-31"/>
       <use xlink:href="#DejaVuSans-35" x="63.623047"/>
      </g>
     </g>
    </g>
    <g id="ytick_5">
     <g id="line2d_11">
      <g>
       <use xlink:href="#m68f25a9870" x="45.279063" y="117.558125" style="stroke: #000000; stroke-width: 1.1"/>
      </g>
     </g>
     <g id="text_12">
      <!-- 20 -->
      <g transform="translate(23.781563 121.737266) scale(0.11 -0.11)">
       <use xlink:href="#DejaVuSans-32"/>
       <use xlink:href="#DejaVuSans-30" x="63.623047"/>
      </g>
     </g>
    </g>
    <g id="ytick_6">
     <g id="line2d_12">
      <g>
       <use xlink:href="#m68f25a9870" x="45.279063" y="94.248125" style="stroke: #000000; stroke-width: 1.1"/>
      </g>
     </g>
     <g id="text_13">
      <!-- 25 -->
      <g transform="translate(23.781563 98.427266) scale(0.11 -0.11)">
       <use xlink:href="#DejaVuSans-32"/>
       <use xlink:href="#DejaVuSans-35" x="63.623047"/>
      </g>
     </g>
    </g>
    <g id="ytick_7">
     <g id="line2d_13">
      <g>
       <use xlink:href="#m68f25a9870" x="45.279063" y="70.938125" style="stroke: #000000; stroke-width: 1.1"/>
      </g>
     </g>
     <g id="text_14">
      <!-- 30 -->
      <g transform="translate(23.781563 75.117266) scale(0.11 -0.11)">
       <defs>
        <path id="DejaVuSans-33" d="M 2597 2516 
Q 3050 2419 3304 2112 
Q 3559 1806 3559 1356 
Q 3559 666 3084 287 
Q 2609 -91 1734 -91 
Q 1441 -91 1130 -33 
Q 819 25 488 141 
L 488 750 
Q 750 597 1062 519 
Q 1375 441 1716 441 
Q 2309 441 2620 675 
Q 2931 909 2931 1356 
Q 2931 1769 2642 2001 
Q 2353 2234 1838 2234 
L 1294 2234 
L 1294 2753 
L 1863 2753 
Q 2328 2753 2575 2939 
Q 2822 3125 2822 3475 
Q 2822 3834 2567 4026 
Q 2313 4219 1838 4219 
Q 1578 4219 1281 4162 
Q 984 4106 628 3988 
L 628 4550 
Q 988 4650 1302 4700 
Q 1616 4750 1894 4750 
Q 2613 4750 3031 4423 
Q 3450 4097 3450 3541 
Q 3450 3153 3228 2886 
Q 3006 2619 2597 2516 
z
" transform="scale(0.015625)"/>
       </defs>
       <use xlink:href="#DejaVuSans-33"/>
       <use xlink:href="#DejaVuSans-30" x="63.623047"/>
      </g>
     </g>
    </g>
    <g id="ytick_8">
     <g id="line2d_14">
      <g>
       <use xlink:href="#m68f25a9870" x="45.279063" y="47.628125" style="stroke: #000000; stroke-width: 1.1"/>
      </g>
     </g>
     <g id="text_15">
      <!-- 35 -->
      <g transform="translate(23.781563 51.807266) scale(0.11 -0.11)">
       <use xlink:href="#DejaVuSans-33"/>
       <use xlink:href="#DejaVuSans-35" x="63.623047"/>
      </g>
     </g>
    </g>
    <g id="ytick_9">
     <g id="line2d_15">
      <g>
       <use xlink:href="#m68f25a9870" x="45.279063" y="24.318125" style="stroke: #000000; stroke-width: 1.1"/>
      </g>
     </g>
     <g id="text_16">
      <!-- 40 -->
      <g transform="translate(23.781563 28.497266) scale(0.11 -0.11)">
       <use xlink:href="#DejaVuSans-34"/>
       <use xlink:href="#DejaVuSans-30" x="63.623047"/>
      </g>
     </g>
    </g>
    <g id="text_17">
     <!-- Number of Orientation Jump -->
     <g transform="translate(17.077969 209.322891) rotate(-90) scale(0.13 -0.13)">
      <defs>
       <path id="DejaVuSans-4e" d="M 628 4666 
L 1478 4666 
L 3547 763 
L 3547 4666 
L 4159 4666 
L 4159 0 
L 3309 0 
L 1241 3903 
L 1241 0 
L 628 0 
L 628 4666 
z
" transform="scale(0.015625)"/>
       <path id="DejaVuSans-75" d="M 544 1381 
L 544 3500 
L 1119 3500 
L 1119 1403 
Q 1119 906 1312 657 
Q 1506 409 1894 409 
Q 2359 409 2629 706 
Q 2900 1003 2900 1516 
L 2900 3500 
L 3475 3500 
L 3475 0 
L 2900 0 
L 2900 538 
Q 2691 219 2414 64 
Q 2138 -91 1772 -91 
Q 1169 -91 856 284 
Q 544 659 544 1381 
z
M 1991 3584 
L 1991 3584 
z
" transform="scale(0.015625)"/>
       <path id="DejaVuSans-6d" d="M 3328 2828 
Q 3544 3216 3844 3400 
Q 4144 3584 4550 3584 
Q 5097 3584 5394 3201 
Q 5691 2819 5691 2113 
L 5691 0 
L 5113 0 
L 5113 2094 
Q 5113 2597 4934 2840 
Q 4756 3084 4391 3084 
Q 3944 3084 3684 2787 
Q 3425 2491 3425 1978 
L 3425 0 
L 2847 0 
L 2847 2094 
Q 2847 2600 2669 2842 
Q 2491 3084 2119 3084 
Q 1678 3084 1418 2786 
Q 1159 2488 1159 1978 
L 1159 0 
L 581 0 
L 581 3500 
L 1159 3500 
L 1159 2956 
Q 1356 3278 1631 3431 
Q 1906 3584 2284 3584 
Q 2666 3584 2933 3390 
Q 3200 3197 3328 2828 
z
" transform="scale(0.015625)"/>
       <path id="DejaVuSans-62" d="M 3116 1747 
Q 3116 2381 2855 2742 
Q 2594 3103 2138 3103 
Q 1681 3103 1420 2742 
Q 1159 2381 1159 1747 
Q 1159 1113 1420 752 
Q 1681 391 2138 391 
Q 2594 391 2855 752 
Q 3116 1113 3116 1747 
z
M 1159 2969 
Q 1341 3281 1617 3432 
Q 1894 3584 2278 3584 
Q 2916 3584 3314 3078 
Q 3713 2572 3713 1747 
Q 3713 922 3314 415 
Q 2916 -91 2278 -91 
Q 1894 -91 1617 61 
Q 1341 213 1159 525 
L 1159 0 
L 581 0 
L 581 4863 
L 1159 4863 
L 1159 2969 
z
" transform="scale(0.015625)"/>
       <path id="DejaVuSans-65" d="M 3597 1894 
L 3597 1613 
L 953 1613 
Q 991 1019 1311 708 
Q 1631 397 2203 397 
Q 2534 397 2845 478 
Q 3156 559 3463 722 
L 3463 178 
Q 3153 47 2828 -22 
Q 2503 -91 2169 -91 
Q 1331 -91 842 396 
Q 353 884 353 1716 
Q 353 2575 817 3079 
Q 1281 3584 2069 3584 
Q 2775 3584 3186 3129 
Q 3597 2675 3597 1894 
z
M 3022 2063 
Q 3016 2534 2758 2815 
Q 2500 3097 2075 3097 
Q 1594 3097 1305 2825 
Q 1016 2553 972 2059 
L 3022 2063 
z
" transform="scale(0.015625)"/>
       <path id="DejaVuSans-72" d="M 2631 2963 
Q 2534 3019 2420 3045 
Q 2306 3072 2169 3072 
Q 1681 3072 1420 2755 
Q 1159 2438 1159 1844 
L 1159 0 
L 581 0 
L 581 3500 
L 1159 3500 
L 1159 2956 
Q 1341 3275 1631 3429 
Q 1922 3584 2338 3584 
Q 2397 3584 2469 3576 
Q 2541 3569 2628 3553 
L 2631 2963 
z
" transform="scale(0.015625)"/>
       <path id="DejaVuSans-20" transform="scale(0.015625)"/>
       <path id="DejaVuSans-6f" d="M 1959 3097 
Q 1497 3097 1228 2736 
Q 959 2375 959 1747 
Q 959 1119 1226 758 
Q 1494 397 1959 397 
Q 2419 397 2687 759 
Q 2956 1122 2956 1747 
Q 2956 2369 2687 2733 
Q 2419 3097 1959 3097 
z
M 1959 3584 
Q 2709 3584 3137 3096 
Q 3566 2609 3566 1747 
Q 3566 888 3137 398 
Q 2709 -91 1959 -91 
Q 1206 -91 779 398 
Q 353 888 353 1747 
Q 353 2609 779 3096 
Q 1206 3584 1959 3584 
z
" transform="scale(0.015625)"/>
       <path id="DejaVuSans-66" d="M 2375 4863 
L 2375 4384 
L 1825 4384 
Q 1516 4384 1395 4259 
Q 1275 4134 1275 3809 
L 1275 3500 
L 2222 3500 
L 2222 3053 
L 1275 3053 
L 1275 0 
L 697 0 
L 697 3053 
L 147 3053 
L 147 3500 
L 697 3500 
L 697 3744 
Q 697 4328 969 4595 
Q 1241 4863 1831 4863 
L 2375 4863 
z
" transform="scale(0.015625)"/>
       <path id="DejaVuSans-4f" d="M 2522 4238 
Q 1834 4238 1429 3725 
Q 1025 3213 1025 2328 
Q 1025 1447 1429 934 
Q 1834 422 2522 422 
Q 3209 422 3611 934 
Q 4013 1447 4013 2328 
Q 4013 3213 3611 3725 
Q 3209 4238 2522 4238 
z
M 2522 4750 
Q 3503 4750 4090 4092 
Q 4678 3434 4678 2328 
Q 4678 1225 4090 567 
Q 3503 -91 2522 -91 
Q 1538 -91 948 565 
Q 359 1222 359 2328 
Q 359 3434 948 4092 
Q 1538 4750 2522 4750 
z
" transform="scale(0.015625)"/>
       <path id="DejaVuSans-69" d="M 603 3500 
L 1178 3500 
L 1178 0 
L 603 0 
L 603 3500 
z
M 603 4863 
L 1178 4863 
L 1178 4134 
L 603 4134 
L 603 4863 
z
" transform="scale(0.015625)"/>
       <path id="DejaVuSans-6e" d="M 3513 2113 
L 3513 0 
L 2938 0 
L 2938 2094 
Q 2938 2591 2744 2837 
Q 2550 3084 2163 3084 
Q 1697 3084 1428 2787 
Q 1159 2491 1159 1978 
L 1159 0 
L 581 0 
L 581 3500 
L 1159 3500 
L 1159 2956 
Q 1366 3272 1645 3428 
Q 1925 3584 2291 3584 
Q 2894 3584 3203 3211 
Q 3513 2838 3513 2113 
z
" transform="scale(0.015625)"/>
       <path id="DejaVuSans-74" d="M 1172 4494 
L 1172 3500 
L 2356 3500 
L 2356 3053 
L 1172 3053 
L 1172 1153 
Q 1172 725 1289 603 
Q 1406 481 1766 481 
L 2356 481 
L 2356 0 
L 1766 0 
Q 1100 0 847 248 
Q 594 497 594 1153 
L 594 3053 
L 172 3053 
L 172 3500 
L 594 3500 
L 594 4494 
L 1172 4494 
z
" transform="scale(0.015625)"/>
       <path id="DejaVuSans-61" d="M 2194 1759 
Q 1497 1759 1228 1600 
Q 959 1441 959 1056 
Q 959 750 1161 570 
Q 1363 391 1709 391 
Q 2188 391 2477 730 
Q 2766 1069 2766 1631 
L 2766 1759 
L 2194 1759 
z
M 3341 1997 
L 3341 0 
L 2766 0 
L 2766 531 
Q 2569 213 2275 61 
Q 1981 -91 1556 -91 
Q 1019 -91 701 211 
Q 384 513 384 1019 
Q 384 1609 779 1909 
Q 1175 2209 1959 2209 
L 2766 2209 
L 2766 2266 
Q 2766 2663 2505 2880 
Q 2244 3097 1772 3097 
Q 1472 3097 1187 3025 
Q 903 2953 641 2809 
L 641 3341 
Q 956 3463 1253 3523 
Q 1550 3584 1831 3584 
Q 2591 3584 2966 3190 
Q 3341 2797 3341 1997 
z
" transform="scale(0.015625)"/>
       <path id="DejaVuSans-4a" d="M 628 4666 
L 1259 4666 
L 1259 325 
Q 1259 -519 939 -900 
Q 619 -1281 -91 -1281 
L -331 -1281 
L -331 -750 
L -134 -750 
Q 284 -750 456 -515 
Q 628 -281 628 325 
L 628 4666 
z
" transform="scale(0.015625)"/>
       <path id="DejaVuSans-70" d="M 1159 525 
L 1159 -1331 
L 581 -1331 
L 581 3500 
L 1159 3500 
L 1159 2969 
Q 1341 3281 1617 3432 
Q 1894 3584 2278 3584 
Q 2916 3584 3314 3078 
Q 3713 2572 3713 1747 
Q 3713 922 3314 415 
Q 2916 -91 2278 -91 
Q 1894 -91 1617 61 
Q 1341 213 1159 525 
z
M 3116 1747 
Q 3116 2381 2855 2742 
Q 2594 3103 2138 3103 
Q 1681 3103 1420 2742 
Q 1159 2381 1159 1747 
Q 1159 1113 1420 752 
Q 1681 391 2138 391 
Q 2594 391 2855 752 
Q 3116 1113 3116 1747 
z
" transform="scale(0.015625)"/>
      </defs>
      <use xlink:href="#DejaVuSans-4e"/>
      <use xlink:href="#DejaVuSans-75" x="74.804688"/>
      <use xlink:href="#DejaVuSans-6d" x="138.183594"/>
      <use xlink:href="#DejaVuSans-62" x="235.595703"/>
      <use xlink:href="#DejaVuSans-65" x="299.072266"/>
      <use xlink:href="#DejaVuSans-72" x="360.595703"/>
      <use xlink:href="#DejaVuSans-20" x="401.708984"/>
      <use xlink:href="#DejaVuSans-6f" x="433.496094"/>
      <use xlink:href="#DejaVuSans-66" x="494.677734"/>
      <use xlink:href="#DejaVuSans-20" x="529.882812"/>
      <use xlink:href="#DejaVuSans-4f" x="561.669922"/>
      <use xlink:href="#DejaVuSans-72" x="640.380859"/>
      <use xlink:href="#DejaVuSans-69" x="681.494141"/>
      <use xlink:href="#DejaVuSans-65" x="709.277344"/>
      <use xlink:href="#DejaVuSans-6e" x="770.800781"/>
      <use xlink:href="#DejaVuSans-74" x="834.179688"/>
      <use xlink:href="#DejaVuSans-61" x="873.388672"/>
      <use xlink:href="#DejaVuSans-74" x="934.667969"/>
      <use xlink:href="#DejaVuSans-69" x="973.876953"/>
      <use xlink:href="#DejaVuSans-6f" x="1001.660156"/>
      <use xlink:href="#DejaVuSans-6e" x="1062.841797"/>
      <use xlink:href="#DejaVuSans-20" x="1126.220703"/>
      <use xlink:href="#DejaVuSans-4a" x="1158.007812"/>
      <use xlink:href="#DejaVuSans-75" x="1187.5"/>
      <use xlink:href="#DejaVuSans-6d" x="1250.878906"/>
      <use xlink:href="#DejaVuSans-70" x="1348.291016"/>
     </g>
    </g>
   </g>
   <g id="patch_43">
    <path d="M 45.279063 210.798125 
L 45.279063 24.318125 
" style="fill: none; stroke: #000000; stroke-width: 1.2; stroke-linejoin: miter; stroke-linecap: square"/>
   </g>
   <g id="patch_44">
    <path d="M 45.279063 210.798125 
L 324.433348 210.798125 
" style="fill: none; stroke: #000000; stroke-width: 1.2; stroke-linejoin: miter; stroke-linecap: square"/>
   </g>
   <g id="text_18">
    <!-- (a) w/o attention-score rectification -->
    <g transform="translate(78.93558 16.318125) scale(0.12 -0.12)">
     <defs>
      <path id="DejaVuSans-28" d="M 1984 4856 
Q 1566 4138 1362 3434 
Q 1159 2731 1159 2009 
Q 1159 1288 1364 580 
Q 1569 -128 1984 -844 
L 1484 -844 
Q 1016 -109 783 600 
Q 550 1309 550 2009 
Q 550 2706 781 3412 
Q 1013 4119 1484 4856 
L 1984 4856 
z
" transform="scale(0.015625)"/>
      <path id="DejaVuSans-29" d="M 513 4856 
L 1013 4856 
Q 1481 4119 1714 3412 
Q 1947 2706 1947 2009 
Q 1947 1309 1714 600 
Q 1481 -109 1013 -844 
L 513 -844 
Q 928 -128 1133 580 
Q 1338 1288 1338 2009 
Q 1338 2731 1133 3434 
Q 928 4138 513 4856 
z
" transform="scale(0.015625)"/>
      <path id="DejaVuSans-77" d="M 269 3500 
L 844 3500 
L 1563 769 
L 2278 3500 
L 2956 3500 
L 3675 769 
L 4391 3500 
L 4966 3500 
L 4050 0 
L 3372 0 
L 2619 2869 
L 1863 0 
L 1184 0 
L 269 3500 
z
" transform="scale(0.015625)"/>
      <path id="DejaVuSans-2f" d="M 1625 4666 
L 2156 4666 
L 531 -594 
L 0 -594 
L 1625 4666 
z
" transform="scale(0.015625)"/>
      <path id="DejaVuSans-2d" d="M 313 2009 
L 1997 2009 
L 1997 1497 
L 313 1497 
L 313 2009 
z
" transform="scale(0.015625)"/>
      <path id="DejaVuSans-73" d="M 2834 3397 
L 2834 2853 
Q 2591 2978 2328 3040 
Q 2066 3103 1784 3103 
Q 1356 3103 1142 2972 
Q 928 2841 928 2578 
Q 928 2378 1081 2264 
Q 1234 2150 1697 2047 
L 1894 2003 
Q 2506 1872 2764 1633 
Q 3022 1394 3022 966 
Q 3022 478 2636 193 
Q 2250 -91 1575 -91 
Q 1294 -91 989 -36 
Q 684 19 347 128 
L 347 722 
Q 666 556 975 473 
Q 1284 391 1588 391 
Q 1994 391 2212 530 
Q 2431 669 2431 922 
Q 2431 1156 2273 1281 
Q 2116 1406 1581 1522 
L 1381 1569 
Q 847 1681 609 1914 
Q 372 2147 372 2553 
Q 372 3047 722 3315 
Q 1072 3584 1716 3584 
Q 2034 3584 2315 3537 
Q 2597 3491 2834 3397 
z
" transform="scale(0.015625)"/>
      <path id="DejaVuSans-63" d="M 3122 3366 
L 3122 2828 
Q 2878 2963 2633 3030 
Q 2388 3097 2138 3097 
Q 1578 3097 1268 2742 
Q 959 2388 959 1747 
Q 959 1106 1268 751 
Q 1578 397 2138 397 
Q 2388 397 2633 464 
Q 2878 531 3122 666 
L 3122 134 
Q 2881 22 2623 -34 
Q 2366 -91 2075 -91 
Q 1284 -91 818 406 
Q 353 903 353 1747 
Q 353 2603 823 3093 
Q 1294 3584 2113 3584 
Q 2378 3584 2631 3529 
Q 2884 3475 3122 3366 
z
" transform="scale(0.015625)"/>
     </defs>
     <use xlink:href="#DejaVuSans-28"/>
     <use xlink:href="#DejaVuSans-61" x="39.013672"/>
     <use xlink:href="#DejaVuSans-29" x="100.292969"/>
     <use xlink:href="#DejaVuSans-20" x="139.306641"/>
     <use xlink:href="#DejaVuSans-77" x="171.09375"/>
     <use xlink:href="#DejaVuSans-2f" x="252.880859"/>
     <use xlink:href="#DejaVuSans-6f" x="286.572266"/>
     <use xlink:href="#DejaVuSans-20" x="347.753906"/>
     <use xlink:href="#DejaVuSans-61" x="379.541016"/>
     <use xlink:href="#DejaVuSans-74" x="440.820312"/>
     <use xlink:href="#DejaVuSans-74" x="480.029297"/>
     <use xlink:href="#DejaVuSans-65" x="519.238281"/>
     <use xlink:href="#DejaVuSans-6e" x="580.761719"/>
     <use xlink:href="#DejaVuSans-74" x="644.140625"/>
     <use xlink:href="#DejaVuSans-69" x="683.349609"/>
     <use xlink:href="#DejaVuSans-6f" x="711.132812"/>
     <use xlink:href="#DejaVuSans-6e" x="772.314453"/>
     <use xlink:href="#DejaVuSans-2d" x="835.693359"/>
     <use xlink:href="#DejaVuSans-73" x="871.777344"/>
     <use xlink:href="#DejaVuSans-63" x="923.876953"/>
     <use xlink:href="#DejaVuSans-6f" x="978.857422"/>
     <use xlink:href="#DejaVuSans-72" x="1040.039062"/>
     <use xlink:href="#DejaVuSans-65" x="1078.902344"/>
     <use xlink:href="#DejaVuSans-20" x="1140.425781"/>
     <use xlink:href="#DejaVuSans-72" x="1172.212891"/>
     <use xlink:href="#DejaVuSans-65" x="1211.076172"/>
     <use xlink:href="#DejaVuSans-63" x="1272.599609"/>
     <use xlink:href="#DejaVuSans-74" x="1327.580078"/>
     <use xlink:href="#DejaVuSans-69" x="1366.789062"/>
     <use xlink:href="#DejaVuSans-66" x="1394.572266"/>
     <use xlink:href="#DejaVuSans-69" x="1429.777344"/>
     <use xlink:href="#DejaVuSans-63" x="1457.560547"/>
     <use xlink:href="#DejaVuSans-61" x="1512.541016"/>
     <use xlink:href="#DejaVuSans-74" x="1573.820312"/>
     <use xlink:href="#DejaVuSans-69" x="1613.029297"/>
     <use xlink:href="#DejaVuSans-6f" x="1640.8125"/>
     <use xlink:href="#DejaVuSans-6e" x="1701.994141"/>
    </g>
   </g>
   <g id="text_18_relabel">
    <rect x="60" y="0" width="250" height="22" style="fill: #ffffff; stroke: none"/>
    <text x="184.856205" y="16.318125" text-anchor="middle" style="font-family: DejaVu Sans, Arial, sans-serif; font-size: 16px; fill: #000000">(g) w/o attention-score rectification</text>
   </g>
  </g>
  <g id="axes_2">
   <g id="patch_45">
    <path d="M 352.348777 210.798125 
L 631.503062 210.798125 
L 631.503062 24.318125 
L 352.348777 24.318125 
z
" style="fill: #ffffff"/>
   </g>
   <g id="patch_46">
    <path d="M 352.348777 210.798125 
L 359.327634 210.798125 
L 359.327634 210.798125 
L 352.348777 210.798125 
z
" clip-path="url(#pe06e68b61b)" style="fill: #e79b2d; stroke: #000000; stroke-width: 0.9; stroke-linejoin: miter"/>
   </g>
   <g id="patch_47">
    <path d="M 359.327634 210.798125 
L 366.306491 210.798125 
L 366.306491 210.798125 
L 359.327634 210.798125 
z
" clip-path="url(#pe06e68b61b)" style="fill: #e79b2d; stroke: #000000; stroke-width: 0.9; stroke-linejoin: miter"/>
   </g>
   <g id="patch_48">
    <path d="M 366.306491 210.798125 
L 373.285348 210.798125 
L 373.285348 210.798125 
L 366.306491 210.798125 
z
" clip-path="url(#pe06e68b61b)" style="fill: #e79b2d; stroke: #000000; stroke-width: 0.9; stroke-linejoin: miter"/>
   </g>
   <g id="patch_49">
    <path d="M 373.285348 210.798125 
L 380.264205 210.798125 
L 380.264205 210.798125 
L 373.285348 210.798125 
z
" clip-path="url(#pe06e68b61b)" style="fill: #e79b2d; stroke: #000000; stroke-width: 0.9; stroke-linejoin: miter"/>
   </g>
   <g id="patch_50">
    <path d="M 380.264205 210.798125 
L 387.243062 210.798125 
L 387.243062 210.798125 
L 380.264205 210.798125 
z
" clip-path="url(#pe06e68b61b)" style="fill: #e79b2d; stroke: #000000; stroke-width: 0.9; stroke-linejoin: miter"/>
   </g>
   <g id="patch_51">
    <path d="M 387.243063 210.798125 
L 394.22192 210.798125 
L 394.22192 210.798125 
L 387.243063 210.798125 
z
" clip-path="url(#pe06e68b61b)" style="fill: #e79b2d; stroke: #000000; stroke-width: 0.9; stroke-linejoin: miter"/>
   </g>
   <g id="patch_52">
    <path d="M 394.22192 210.798125 
L 401.200777 210.798125 
L 401.200777 201.474125 
L 394.22192 201.474125 
z
" clip-path="url(#pe06e68b61b)" style="fill: #e79b2d; stroke: #000000; stroke-width: 0.9; stroke-linejoin: miter"/>
   </g>
   <g id="patch_53">
    <path d="M 401.200777 210.798125 
L 408.179634 210.798125 
L 408.179634 206.136125 
L 401.200777 206.136125 
z
" clip-path="url(#pe06e68b61b)" style="fill: #e79b2d; stroke: #000000; stroke-width: 0.9; stroke-linejoin: miter"/>
   </g>
   <g id="patch_54">
    <path d="M 408.179634 210.798125 
L 415.158491 210.798125 
L 415.158491 206.136125 
L 408.179634 206.136125 
z
" clip-path="url(#pe06e68b61b)" style="fill: #e79b2d; stroke: #000000; stroke-width: 0.9; stroke-linejoin: miter"/>
   </g>
   <g id="patch_55">
    <path d="M 415.158491 210.798125 
L 422.137348 210.798125 
L 422.137348 206.136125 
L 415.158491 206.136125 
z
" clip-path="url(#pe06e68b61b)" style="fill: #e79b2d; stroke: #000000; stroke-width: 0.9; stroke-linejoin: miter"/>
   </g>
   <g id="patch_56">
    <path d="M 422.137348 210.798125 
L 429.116205 210.798125 
L 429.116205 206.136125 
L 422.137348 206.136125 
z
" clip-path="url(#pe06e68b61b)" style="fill: #e79b2d; stroke: #000000; stroke-width: 0.9; stroke-linejoin: miter"/>
   </g>
   <g id="patch_57">
    <path d="M 429.116205 210.798125 
L 436.095062 210.798125 
L 436.095062 206.136125 
L 429.116205 206.136125 
z
" clip-path="url(#pe06e68b61b)" style="fill: #e79b2d; stroke: #000000; stroke-width: 0.9; stroke-linejoin: miter"/>
   </g>
   <g id="patch_58">
    <path d="M 436.095062 210.798125 
L 443.07392 210.798125 
L 443.07392 206.136125 
L 436.095062 206.136125 
z
" clip-path="url(#pe06e68b61b)" style="fill: #e79b2d; stroke: #000000; stroke-width: 0.9; stroke-linejoin: miter"/>
   </g>
   <g id="patch_59">
    <path d="M 443.07392 210.798125 
L 450.052777 210.798125 
L 450.052777 206.136125 
L 443.07392 206.136125 
z
" clip-path="url(#pe06e68b61b)" style="fill: #e79b2d; stroke: #000000; stroke-width: 0.9; stroke-linejoin: miter"/>
   </g>
   <g id="patch_60">
    <path d="M 450.052777 210.798125 
L 457.031634 210.798125 
L 457.031634 206.136125 
L 450.052777 206.136125 
z
" clip-path="url(#pe06e68b61b)" style="fill: #e79b2d; stroke: #000000; stroke-width: 0.9; stroke-linejoin: miter"/>
   </g>
   <g id="patch_61">
    <path d="M 457.031634 210.798125 
L 464.010491 210.798125 
L 464.010491 196.812125 
L 457.031634 196.812125 
z
" clip-path="url(#pe06e68b61b)" style="fill: #e79b2d; stroke: #000000; stroke-width: 0.9; stroke-linejoin: miter"/>
   </g>
   <g id="patch_62">
    <path d="M 464.010491 210.798125 
L 470.989348 210.798125 
L 470.989348 196.812125 
L 464.010491 196.812125 
z
" clip-path="url(#pe06e68b61b)" style="fill: #e79b2d; stroke: #000000; stroke-width: 0.9; stroke-linejoin: miter"/>
   </g>
   <g id="patch_63">
    <path d="M 470.989348 210.798125 
L 477.968205 210.798125 
L 477.968205 196.812125 
L 470.989348 196.812125 
z
" clip-path="url(#pe06e68b61b)" style="fill: #e79b2d; stroke: #000000; stroke-width: 0.9; stroke-linejoin: miter"/>
   </g>
   <g id="patch_64">
    <path d="M 477.968205 210.798125 
L 484.947062 210.798125 
L 484.947062 196.812125 
L 477.968205 196.812125 
z
" clip-path="url(#pe06e68b61b)" style="fill: #e79b2d; stroke: #000000; stroke-width: 0.9; stroke-linejoin: miter"/>
   </g>
   <g id="patch_65">
    <path d="M 484.947063 210.798125 
L 491.92592 210.798125 
L 491.92592 187.488125 
L 484.947063 187.488125 
z
" clip-path="url(#pe06e68b61b)" style="fill: #e79b2d; stroke: #000000; stroke-width: 0.9; stroke-linejoin: miter"/>
   </g>
   <g id="patch_66">
    <path d="M 491.92592 210.798125 
L 498.904777 210.798125 
L 498.904777 192.150125 
L 491.92592 192.150125 
z
" clip-path="url(#pe06e68b61b)" style="fill: #e79b2d; stroke: #000000; stroke-width: 0.9; stroke-linejoin: miter"/>
   </g>
   <g id="patch_67">
    <path d="M 498.904777 210.798125 
L 505.883634 210.798125 
L 505.883634 187.488125 
L 498.904777 187.488125 
z
" clip-path="url(#pe06e68b61b)" style="fill: #e79b2d; stroke: #000000; stroke-width: 0.9; stroke-linejoin: miter"/>
   </g>
   <g id="patch_68">
    <path d="M 505.883634 210.798125 
L 512.862491 210.798125 
L 512.862491 192.150125 
L 505.883634 192.150125 
z
" clip-path="url(#pe06e68b61b)" style="fill: #e79b2d; stroke: #000000; stroke-width: 0.9; stroke-linejoin: miter"/>
   </g>
   <g id="patch_69">
    <path d="M 512.862491 210.798125 
L 519.841348 210.798125 
L 519.841348 196.812125 
L 512.862491 196.812125 
z
" clip-path="url(#pe06e68b61b)" style="fill: #e79b2d; stroke: #000000; stroke-width: 0.9; stroke-linejoin: miter"/>
   </g>
   <g id="patch_70">
    <path d="M 519.841348 210.798125 
L 526.820205 210.798125 
L 526.820205 196.812125 
L 519.841348 196.812125 
z
" clip-path="url(#pe06e68b61b)" style="fill: #e79b2d; stroke: #000000; stroke-width: 0.9; stroke-linejoin: miter"/>
   </g>
   <g id="patch_71">
    <path d="M 526.820205 210.798125 
L 533.799062 210.798125 
L 533.799062 196.812125 
L 526.820205 196.812125 
z
" clip-path="url(#pe06e68b61b)" style="fill: #e79b2d; stroke: #000000; stroke-width: 0.9; stroke-linejoin: miter"/>
   </g>
   <g id="patch_72">
    <path d="M 533.799062 210.798125 
L 540.77792 210.798125 
L 540.77792 201.474125 
L 533.799062 201.474125 
z
" clip-path="url(#pe06e68b61b)" style="fill: #e79b2d; stroke: #000000; stroke-width: 0.9; stroke-linejoin: miter"/>
   </g>
   <g id="patch_73">
    <path d="M 540.77792 210.798125 
L 547.756777 210.798125 
L 547.756777 201.474125 
L 540.77792 201.474125 
z
" clip-path="url(#pe06e68b61b)" style="fill: #e79b2d; stroke: #000000; stroke-width: 0.9; stroke-linejoin: miter"/>
   </g>
   <g id="patch_74">
    <path d="M 547.756777 210.798125 
L 554.735634 210.798125 
L 554.735634 206.136125 
L 547.756777 206.136125 
z
" clip-path="url(#pe06e68b61b)" style="fill: #e79b2d; stroke: #000000; stroke-width: 0.9; stroke-linejoin: miter"/>
   </g>
   <g id="patch_75">
    <path d="M 554.735634 210.798125 
L 561.714491 210.798125 
L 561.714491 206.136125 
L 554.735634 206.136125 
z
" clip-path="url(#pe06e68b61b)" style="fill: #e79b2d; stroke: #000000; stroke-width: 0.9; stroke-linejoin: miter"/>
   </g>
   <g id="patch_76">
    <path d="M 561.714491 210.798125 
L 568.693348 210.798125 
L 568.693348 210.798125 
L 561.714491 210.798125 
z
" clip-path="url(#pe06e68b61b)" style="fill: #e79b2d; stroke: #000000; stroke-width: 0.9; stroke-linejoin: miter"/>
   </g>
   <g id="patch_77">
    <path d="M 568.693348 210.798125 
L 575.672205 210.798125 
L 575.672205 210.798125 
L 568.693348 210.798125 
z
" clip-path="url(#pe06e68b61b)" style="fill: #e79b2d; stroke: #000000; stroke-width: 0.9; stroke-linejoin: miter"/>
   </g>
   <g id="patch_78">
    <path d="M 575.672205 210.798125 
L 582.651062 210.798125 
L 582.651062 210.798125 
L 575.672205 210.798125 
z
" clip-path="url(#pe06e68b61b)" style="fill: #e79b2d; stroke: #000000; stroke-width: 0.9; stroke-linejoin: miter"/>
   </g>
   <g id="patch_79">
    <path d="M 582.651062 210.798125 
L 589.62992 210.798125 
L 589.62992 210.798125 
L 582.651062 210.798125 
z
" clip-path="url(#pe06e68b61b)" style="fill: #e79b2d; stroke: #000000; stroke-width: 0.9; stroke-linejoin: miter"/>
   </g>
   <g id="patch_80">
    <path d="M 589.62992 210.798125 
L 596.608777 210.798125 
L 596.608777 210.798125 
L 589.62992 210.798125 
z
" clip-path="url(#pe06e68b61b)" style="fill: #e79b2d; stroke: #000000; stroke-width: 0.9; stroke-linejoin: miter"/>
   </g>
   <g id="patch_81">
    <path d="M 596.608777 210.798125 
L 603.587634 210.798125 
L 603.587634 210.798125 
L 596.608777 210.798125 
z
" clip-path="url(#pe06e68b61b)" style="fill: #e79b2d; stroke: #000000; stroke-width: 0.9; stroke-linejoin: miter"/>
   </g>
   <g id="patch_82">
    <path d="M 603.587634 210.798125 
L 610.566491 210.798125 
L 610.566491 210.798125 
L 603.587634 210.798125 
z
" clip-path="url(#pe06e68b61b)" style="fill: #e79b2d; stroke: #000000; stroke-width: 0.9; stroke-linejoin: miter"/>
   </g>
   <g id="patch_83">
    <path d="M 610.566491 210.798125 
L 617.545348 210.798125 
L 617.545348 210.798125 
L 610.566491 210.798125 
z
" clip-path="url(#pe06e68b61b)" style="fill: #e79b2d; stroke: #000000; stroke-width: 0.9; stroke-linejoin: miter"/>
   </g>
   <g id="patch_84">
    <path d="M 617.545348 210.798125 
L 624.524205 210.798125 
L 624.524205 210.798125 
L 617.545348 210.798125 
z
" clip-path="url(#pe06e68b61b)" style="fill: #e79b2d; stroke: #000000; stroke-width: 0.9; stroke-linejoin: miter"/>
   </g>
   <g id="patch_85">
    <path d="M 624.524205 210.798125 
L 631.503062 210.798125 
L 631.503062 210.798125 
L 624.524205 210.798125 
z
" clip-path="url(#pe06e68b61b)" style="fill: #e79b2d; stroke: #000000; stroke-width: 0.9; stroke-linejoin: miter"/>
   </g>
   <g id="matplotlib.axis_3">
    <g id="xtick_7">
     <g id="line2d_16">
      <g>
       <use xlink:href="#mf5fc13f164" x="352.348777" y="210.798125" style="stroke: #000000; stroke-width: 1.1"/>
      </g>
     </g>
     <g id="text_19">
      <!-- 0.0 -->
      <g transform="translate(343.602058 226.656406) scale(0.11 -0.11)">
       <use xlink:href="#DejaVuSans-30"/>
       <use xlink:href="#DejaVuSans-2e" x="63.623047"/>
       <use xlink:href="#DejaVuSans-30" x="95.410156"/>
      </g>
     </g>
    </g>
    <g id="xtick_8">
     <g id="line2d_17">
      <g>
       <use xlink:href="#mf5fc13f164" x="408.179634" y="210.798125" style="stroke: #000000; stroke-width: 1.1"/>
      </g>
     </g>
     <g id="text_20">
      <!-- 0.2 -->
      <g transform="translate(399.432915 226.656406) scale(0.11 -0.11)">
       <use xlink:href="#DejaVuSans-30"/>
       <use xlink:href="#DejaVuSans-2e" x="63.623047"/>
       <use xlink:href="#DejaVuSans-32" x="95.410156"/>
      </g>
     </g>
    </g>
    <g id="xtick_9">
     <g id="line2d_18">
      <g>
       <use xlink:href="#mf5fc13f164" x="464.010491" y="210.798125" style="stroke: #000000; stroke-width: 1.1"/>
      </g>
     </g>
     <g id="text_21">
      <!-- 0.4 -->
      <g transform="translate(455.263772 226.656406) scale(0.11 -0.11)">
       <use xlink:href="#DejaVuSans-30"/>
       <use xlink:href="#DejaVuSans-2e" x="63.623047"/>
       <use xlink:href="#DejaVuSans-34" x="95.410156"/>
      </g>
     </g>
    </g>
    <g id="xtick_10">
     <g id="line2d_19">
      <g>
       <use xlink:href="#mf5fc13f164" x="519.841348" y="210.798125" style="stroke: #000000; stroke-width: 1.1"/>
      </g>
     </g>
     <g id="text_22">
      <!-- 0.6 -->
      <g transform="translate(511.094629 226.656406) scale(0.11 -0.11)">
       <use xlink:href="#DejaVuSans-30"/>
       <use xlink:href="#DejaVuSans-2e" x="63.623047"/>
       <use xlink:href="#DejaVuSans-36" x="95.410156"/>
      </g>
     </g>
    </g>
    <g id="xtick_11">
     <g id="line2d_20">
      <g>
       <use xlink:href="#mf5fc13f164" x="575.672205" y="210.798125" style="stroke: #000000; stroke-width: 1.1"/>
      </g>
     </g>
     <g id="text_23">
      <!-- 0.8 -->
      <g transform="translate(566.925487 226.656406) scale(0.11 -0.11)">
       <use xlink:href="#DejaVuSans-30"/>
       <use xlink:href="#DejaVuSans-2e" x="63.623047"/>
       <use xlink:href="#DejaVuSans-38" x="95.410156"/>
      </g>
     </g>
    </g>
    <g id="xtick_12">
     <g id="line2d_21">
      <g>
       <use xlink:href="#mf5fc13f164" x="631.503062" y="210.798125" style="stroke: #000000; stroke-width: 1.1"/>
      </g>
     </g>
     <g id="text_24">
      <!-- 1.0 -->
      <g transform="translate(622.756344 226.656406) scale(0.11 -0.11)">
       <use xlink:href="#DejaVuSans-31"/>
       <use xlink:href="#DejaVuSans-2e" x="63.623047"/>
       <use xlink:href="#DejaVuSans-30" x="95.410156"/>
      </g>
     </g>
    </g>
    <g id="text_25">
     <!-- $\alpha$ -->
     <g transform="translate(487.63592 242.822031) scale(0.13 -0.13)">
      <use xlink:href="#DejaVuSans-Oblique-3b1" transform="translate(0 0.84375)"/>
     </g>
    </g>
   </g>
   <g id="matplotlib.axis_4">
    <g id="ytick_10">
     <g id="line2d_22">
      <g>
       <use xlink:href="#m68f25a9870" x="352.348777" y="210.798125" style="stroke: #000000; stroke-width: 1.1"/>
      </g>
     </g>
    </g>
    <g id="ytick_11">
     <g id="line2d_23">
      <g>
       <use xlink:href="#m68f25a9870" x="352.348777" y="187.488125" style="stroke: #000000; stroke-width: 1.1"/>
      </g>
     </g>
    </g>
    <g id="ytick_12">
     <g id="line2d_24">
      <g>
       <use xlink:href="#m68f25a9870" x="352.348777" y="164.178125" style="stroke: #000000; stroke-width: 1.1"/>
      </g>
     </g>
    </g>
    <g id="ytick_13">
     <g id="line2d_25">
      <g>
       <use xlink:href="#m68f25a9870" x="352.348777" y="140.868125" style="stroke: #000000; stroke-width: 1.1"/>
      </g>
     </g>
    </g>
    <g id="ytick_14">
     <g id="line2d_26">
      <g>
       <use xlink:href="#m68f25a9870" x="352.348777" y="117.558125" style="stroke: #000000; stroke-width: 1.1"/>
      </g>
     </g>
    </g>
    <g id="ytick_15">
     <g id="line2d_27">
      <g>
       <use xlink:href="#m68f25a9870" x="352.348777" y="94.248125" style="stroke: #000000; stroke-width: 1.1"/>
      </g>
     </g>
    </g>
    <g id="ytick_16">
     <g id="line2d_28">
      <g>
       <use xlink:href="#m68f25a9870" x="352.348777" y="70.938125" style="stroke: #000000; stroke-width: 1.1"/>
      </g>
     </g>
    </g>
    <g id="ytick_17">
     <g id="line2d_29">
      <g>
       <use xlink:href="#m68f25a9870" x="352.348777" y="47.628125" style="stroke: #000000; stroke-width: 1.1"/>
      </g>
     </g>
    </g>
    <g id="ytick_18">
     <g id="line2d_30">
      <g>
       <use xlink:href="#m68f25a9870" x="352.348777" y="24.318125" style="stroke: #000000; stroke-width: 1.1"/>
      </g>
     </g>
    </g>
   </g>
   <g id="patch_86">
    <path d="M 352.348777 210.798125 
L 352.348777 24.318125 
" style="fill: none; stroke: #000000; stroke-width: 1.2; stroke-linejoin: miter; stroke-linecap: square"/>
   </g>
   <g id="patch_87">
    <path d="M 352.348777 210.798125 
L 631.503062 210.798125 
" style="fill: none; stroke: #000000; stroke-width: 1.2; stroke-linejoin: miter; stroke-linecap: square"/>
   </g>
   <g id="text_26">
    <!-- (b) w/ attention-score rectification -->
    <g transform="translate(389.544357 16.318125) scale(0.12 -0.12)">
     <use xlink:href="#DejaVuSans-28"/>
     <use xlink:href="#DejaVuSans-62" x="39.013672"/>
     <use xlink:href="#DejaVuSans-29" x="102.490234"/>
     <use xlink:href="#DejaVuSans-20" x="141.503906"/>
     <use xlink:href="#DejaVuSans-77" x="173.291016"/>
     <use xlink:href="#DejaVuSans-2f" x="255.078125"/>
     <use xlink:href="#DejaVuSans-20" x="288.769531"/>
     <use xlink:href="#DejaVuSans-61" x="320.556641"/>
     <use xlink:href="#DejaVuSans-74" x="381.835938"/>
     <use xlink:href="#DejaVuSans-74" x="421.044922"/>
     <use xlink:href="#DejaVuSans-65" x="460.253906"/>
     <use xlink:href="#DejaVuSans-6e" x="521.777344"/>
     <use xlink:href="#DejaVuSans-74" x="585.15625"/>
     <use xlink:href="#DejaVuSans-69" x="624.365234"/>
     <use xlink:href="#DejaVuSans-6f" x="652.148438"/>
     <use xlink:href="#DejaVuSans-6e" x="713.330078"/>
     <use xlink:href="#DejaVuSans-2d" x="776.708984"/>
     <use xlink:href="#DejaVuSans-73" x="812.792969"/>
     <use xlink:href="#DejaVuSans-63" x="864.892578"/>
     <use xlink:href="#DejaVuSans-6f" x="919.873047"/>
     <use xlink:href="#DejaVuSans-72" x="981.054688"/>
     <use xlink:href="#DejaVuSans-65" x="1019.917969"/>
     <use xlink:href="#DejaVuSans-20" x="1081.441406"/>
     <use xlink:href="#DejaVuSans-72" x="1113.228516"/>
     <use xlink:href="#DejaVuSans-65" x="1152.091797"/>
     <use xlink:href="#DejaVuSans-63" x="1213.615234"/>
     <use xlink:href="#DejaVuSans-74" x="1268.595703"/>
     <use xlink:href="#DejaVuSans-69" x="1307.804688"/>
     <use xlink:href="#DejaVuSans-66" x="1335.587891"/>
     <use xlink:href="#DejaVuSans-69" x="1370.792969"/>
     <use xlink:href="#DejaVuSans-63" x="1398.576172"/>
     <use xlink:href="#DejaVuSans-61" x="1453.556641"/>
     <use xlink:href="#DejaVuSans-74" x="1514.835938"/>
     <use xlink:href="#DejaVuSans-69" x="1554.044922"/>
     <use xlink:href="#DejaVuSans-6f" x="1581.828125"/>
     <use xlink:href="#DejaVuSans-6e" x="1643.009766"/>
    </g>
   </g>
   <g id="text_26_relabel">
    <rect x="375" y="0" width="235" height="22" style="fill: #ffffff; stroke: none"/>
    <text x="491.92592" y="16.318125" text-anchor="middle" style="font-family: DejaVu Sans, Arial, sans-serif; font-size: 16px; fill: #000000">(h) w/ attention-score rectification</text>
   </g>
  </g>
 </g>
 <defs>
  <clipPath id="p8ac2e85d37">
   <rect x="45.279063" y="24.318125" width="279.154286" height="186.48"/>
  </clipPath>
  <clipPath id="pe06e68b61b">
   <rect x="352.348777" y="24.318125" width="279.154286" height="186.48"/>
  </clipPath>
 </defs>
</svg>
